/* XPM */
static char *_de1410135414b9dafe79ced84ca3d69T5Z2zc7CqRfgxNJw[] = {
/* columns rows colors chars-per-pixel */
"38 56 28 1 ",
"  c None",
". c #040804",
"X c #07100D",
"o c #0B130B",
"O c #0B1B16",
"+ c #101511",
"@ c #2F1618",
"# c #341510",
"$ c #112124",
"% c #1B392B",
"& c #242F21",
"* c #411F22",
"= c #4C252C",
"- c #51393A",
"; c #24463F",
": c #34374C",
"> c #334F6C",
", c #664C4E",
"< c #8B7C5E",
"1 c #9E8F72",
"2 c #7F89A0",
"3 c #A5A69B",
"4 c #CDC7BC",
"5 c #BCB2C2",
"6 c #D4CFD7",
"7 c #D6DFD8",
"8 c #D2DDF7",
"9 c #F1EBF5",
/* pixels */
"                                      ",
"                55656                 ",
"                 65654                ",
"                 <<6<1                ",
"                4<<95<                ",
"                11111<                ",
"                 <<11<                ",
"                733<11                ",
"              77773<<< 7              ",
"             7773371<O 37             ",
"            73737373;O&737            ",
"           737::&3373;O373            ",
"           7:::&&&&33XO33             ",
"           3>:&&%%&OO;O&&             ",
"           7:&&%%%&O;O;&%%            ",
"          >:&&%%%%%OO;O&%%            ",
"          >:&%%&&%%O;O;&&%            ",
"         >>&%%&&&&&OO;O&&%=           ",
"         >&%%&::%%%&OO;&**=           ",
"        >>=%%&::&&&&&OO: *==          ",
"        >>*=*:::*****,,:  *=          ",
"        >>***:::@@@@@--:> *=          ",
"       >>>***::%%&&&&&&:>  *=         ",
"       >>>**=:%%%%&&&+&::  #=         ",
"       >>>:*=*%%%&&&&+&&:  #**        ",
"      >>>.o***@%&&&&&&+&:> **#        ",
"      >>>:..**.&&&&&&&+&&>  #         ",
"      >>::::@*.oo88++++++:            ",
"     >>>:::::$$$.o288++++:>           ",
"     >>::::::$$$+8228888+:>           ",
"     >>:::::$$$+++88222888>           ",
"    >>>:::::++$+++++88822288          ",
"    >>:::::==+++++:++++8882288        ",
"    >>:::::===*++::+++++::888888      ",
"   >>:::::====**+::++++::::> 88888    ",
"   >::::::===**#::##++##:::>   8888888",
"   >:    ******#::####*#:::>      8888",
"   >     *######::****##:::>          ",
"   >       ###:::  #####:::>          ",
"           *##     ###   ::>          ",
"          ***      ##     :>          ",
"          ***     *##                 ",
"          ***     *##                 ",
"         ***      #**                 ",
"         *##      ###*                ",
"         ###      ###**               ",
"                                      ",
"                                      ",
"                                      ",
"                                      ",
"                                      ",
"                                      ",
"                                      ",
"                                      ",
"                                      ",
"                                      "
};
